<svg width="16" height="16" viewBox="0 0 16 16" fill="none" xmlns="http://www.w3.org/2000/svg">
<g id="Icon/thumbs-down">
<path id="Vector (Stroke)" fill-rule="evenodd" clip-rule="evenodd" d="M13.818 2.08392C13.6246 1.91793 13.377 1.82873 13.1222 1.83323L13.1134 1.83339L11.8334 1.83331V8.16664H13.1222C13.377 8.17115 13.6246 8.08202 13.818 7.91603C14.0036 7.75665 14.1269 7.53714 14.1667 7.29634V2.70361C14.1269 2.46282 14.0036 2.2433 13.818 2.08392ZM10.8334 8.56053L8.35619 14.1342C8.07417 14.0745 7.81297 13.9343 7.60603 13.7273C7.32472 13.446 7.16669 13.0645 7.16669 12.6666V9.99998C7.16669 9.72383 6.94283 9.49998 6.66669 9.49998H2.89335L2.88769 9.50001C2.7669 9.50138 2.64725 9.47646 2.53704 9.427C2.42683 9.37754 2.32869 9.3047 2.24942 9.21354C2.17015 9.12239 2.11165 9.01508 2.07797 8.89907C2.04432 8.78317 2.03625 8.66134 2.05431 8.54201C2.05429 8.54213 2.05432 8.5419 2.05431 8.54201L2.97437 2.54161C3.0045 2.3429 3.10544 2.16177 3.25857 2.03161C3.41171 1.90144 3.60673 1.83101 3.8077 1.83328L10.8334 1.83331V8.56053ZM13.1092 0.83331C13.6074 0.825654 14.0912 1.00056 14.4693 1.32512C14.8486 1.65071 15.0952 2.10425 15.1622 2.59962C15.1652 2.62184 15.1667 2.64423 15.1667 2.66664V7.33331C15.1667 7.35573 15.1652 7.37812 15.1622 7.40033C15.0952 7.89571 14.8486 8.34924 14.4693 8.67483C14.0912 8.99939 13.6074 9.1743 13.1092 9.16664H11.6583L9.12359 14.8697C9.04334 15.0503 8.86428 15.1666 8.66669 15.1666C8.00365 15.1666 7.36776 14.9033 6.89892 14.4344C6.43008 13.9656 6.16669 13.3297 6.16669 12.6666V10.5H2.89599C2.63127 10.5025 2.36912 10.4477 2.12757 10.3393C1.88511 10.2305 1.6692 10.0703 1.49481 9.86972C1.32042 9.66917 1.19172 9.43311 1.11762 9.17788C1.04352 8.92265 1.0258 8.65437 1.06568 8.39161L1.98567 2.39168C1.98565 2.39182 1.98569 2.39153 1.98567 2.39168C2.05205 1.95468 2.27414 1.55594 2.61093 1.26967C2.94705 0.983962 3.3749 0.829057 3.81596 0.83331H13.1092Z" fill="#818181"/>
</g>
</svg>
