<svg width="16" height="16" viewBox="0 0 16 16" fill="none" xmlns="http://www.w3.org/2000/svg">
<g id="Icon/thumbs-up">
<path id="Vector (Stroke)" fill-rule="evenodd" clip-rule="evenodd" d="M6.87641 1.13018C6.95666 0.949619 7.13572 0.833252 7.33331 0.833252C7.99635 0.833252 8.63224 1.09664 9.10108 1.56549C9.56992 2.03433 9.83331 2.67021 9.83331 3.33325V5.49992H13.104C13.3688 5.49736 13.6309 5.55216 13.8724 5.66057C14.1149 5.76939 14.3308 5.92962 14.5052 6.13017C14.6796 6.33072 14.8083 6.56679 14.8824 6.82201C14.9565 7.07724 14.9742 7.34553 14.9343 7.60828L14.0143 13.6082C14.0143 13.6083 14.0143 13.6082 14.0143 13.6082C13.948 14.0453 13.7259 14.4439 13.3891 14.7302C13.0529 15.0159 12.6251 15.1708 12.184 15.1666H2.66665C2.18042 15.1666 1.7141 14.9734 1.37028 14.6296C1.02647 14.2858 0.833313 13.8195 0.833313 13.3333V8.66659C0.833313 8.18036 1.02647 7.71404 1.37028 7.37022C1.7141 7.02641 2.18042 6.83325 2.66665 6.83325H4.34171L6.87641 1.13018ZM5.16665 7.43936L7.64381 1.86573C7.92583 1.92541 8.18703 2.06564 8.39397 2.27259C8.67528 2.5539 8.83331 2.93543 8.83331 3.33325V5.99992C8.83331 6.27606 9.05717 6.49992 9.33331 6.49992H13.1066L13.1123 6.49989C13.2331 6.49852 13.3528 6.52343 13.463 6.57289C13.5732 6.62236 13.6713 6.69519 13.7506 6.78635C13.8299 6.87751 13.8884 6.98481 13.922 7.10082C13.9557 7.21676 13.9638 7.33863 13.9457 7.45799C13.9457 7.45806 13.9457 7.45791 13.9457 7.45799L13.0256 13.4583C12.9955 13.657 12.8946 13.8381 12.7414 13.9683C12.5883 14.0985 12.3933 14.1689 12.1923 14.1666L5.16665 14.1666V7.43936ZM4.16665 14.1666V7.83325H2.66665C2.44563 7.83325 2.23367 7.92105 2.07739 8.07733C1.92111 8.23361 1.83331 8.44557 1.83331 8.66659V13.3333C1.83331 13.5543 1.92111 13.7662 2.07739 13.9225C2.23367 14.0788 2.44563 14.1666 2.66665 14.1666H4.16665Z" fill="#818181"/>
</g>
</svg>
