<svg width="16" height="16" viewBox="0 0 16 16" fill="none" xmlns="http://www.w3.org/2000/svg">
<g id="Icon/thumbs-up">
<path id="Vector (Stroke)" fill-rule="evenodd" clip-rule="evenodd" d="M6.87641 1.13024C6.95666 0.94968 7.13572 0.833313 7.33331 0.833313C7.99635 0.833313 8.63224 1.09671 9.10108 1.56555C9.56992 2.03439 9.83331 2.67027 9.83331 3.33331V5.49998H13.104C13.3688 5.49742 13.6309 5.55222 13.8724 5.66063C14.1149 5.76945 14.3308 5.92968 14.5052 6.13023C14.6796 6.33078 14.8083 6.56685 14.8824 6.82208C14.9565 7.0773 14.9742 7.34559 14.9343 7.60835L14.0143 13.6083C14.0143 13.6083 14.0143 13.6082 14.0143 13.6083C13.948 14.0454 13.7259 14.4439 13.3891 14.7303C13.0529 15.016 12.6251 15.1709 12.184 15.1666H2.66665C2.18042 15.1666 1.7141 14.9735 1.37028 14.6297C1.02647 14.2859 0.833313 13.8195 0.833313 13.3333V8.66665C0.833313 8.18042 1.02647 7.7141 1.37028 7.37028C1.7141 7.02647 2.18042 6.83331 2.66665 6.83331H4.34171L6.87641 1.13024ZM5.16665 7.43942L7.64381 1.8658C7.92583 1.92547 8.18703 2.0657 8.39397 2.27265C8.67528 2.55396 8.83331 2.93549 8.83331 3.33331V5.99998C8.83331 6.27612 9.05717 6.49998 9.33331 6.49998H13.1066L13.1123 6.49995C13.2331 6.49858 13.3528 6.52349 13.463 6.57296C13.5732 6.62242 13.6713 6.69525 13.7506 6.78641C13.8299 6.87757 13.8884 6.98487 13.922 7.10089C13.9557 7.21682 13.9638 7.33869 13.9457 7.45805C13.9457 7.45813 13.9457 7.45797 13.9457 7.45805L13.0256 13.4583C12.9955 13.6571 12.8946 13.8382 12.7414 13.9683C12.5883 14.0985 12.3933 14.169 12.1923 14.1667L5.16665 14.1666V7.43942ZM4.16665 14.1666V7.83331H2.66665C2.44563 7.83331 2.23367 7.92111 2.07739 8.07739C1.92111 8.23367 1.83331 8.44563 1.83331 8.66665V13.3333C1.83331 13.5543 1.92111 13.7663 2.07739 13.9226C2.23367 14.0788 2.44563 14.1666 2.66665 14.1666H4.16665Z" fill="#818181"/>
</g>
</svg>
