<svg width="14" height="14" viewBox="0 0 14 14" fill="none" xmlns="http://www.w3.org/2000/svg">
<g id="ic_x">
<path id="Vector" d="M7 7.83054L3.0018 11.8287C2.89268 11.9378 2.75552 11.9937 2.59032 11.9962C2.42513 11.9987 2.28545 11.9429 2.17128 11.8287C2.05709 11.7146 2 11.5761 2 11.4135C2 11.2508 2.05709 11.1124 2.17128 10.9982L6.16946 7L2.17128 3.0018C2.06215 2.89268 2.00632 2.75552 2.0038 2.59032C2.00127 2.42513 2.05709 2.28545 2.17128 2.17128C2.28545 2.05709 2.42387 2 2.58654 2C2.7492 2 2.88762 2.05709 3.0018 2.17128L7 6.16946L10.9982 2.17128C11.1073 2.06215 11.2445 2.00632 11.4097 2.0038C11.5749 2.00127 11.7146 2.05709 11.8287 2.17128C11.9429 2.28545 12 2.42387 12 2.58654C12 2.7492 11.9429 2.88762 11.8287 3.0018L7.83054 7L11.8287 10.9982C11.9378 11.1073 11.9937 11.2445 11.9962 11.4097C11.9987 11.5749 11.9429 11.7146 11.8287 11.8287C11.7146 11.9429 11.5761 12 11.4135 12C11.2508 12 11.1124 11.9429 10.9982 11.8287L7 7.83054Z" fill="#1877f2"/>
</g>
</svg>
